<svg width="378" height="95" viewBox="0 0 378 95" fill="none" xmlns="http://www.w3.org/2000/svg">
<path d="M18.96 71.42C15.88 71.42 13.12 70.92 10.68 69.92C8.24 68.92 6.28 67.44 4.8 65.48C3.36 63.52 2.6 61.16 2.52 58.4H13.44C13.6 59.96 14.14 61.16 15.06 62C15.98 62.8 17.18 63.2 18.66 63.2C20.18 63.2 21.38 62.86 22.26 62.18C23.14 61.46 23.58 60.48 23.58 59.24C23.58 58.2 23.22 57.34 22.5 56.66C21.82 55.98 20.96 55.42 19.92 54.98C18.92 54.54 17.48 54.04 15.6 53.48C12.88 52.64 10.66 51.8 8.94 50.96C7.22 50.12 5.74 48.88 4.5 47.24C3.26 45.6 2.64 43.46 2.64 40.82C2.64 36.9 4.06 33.84 6.9 31.64C9.74 29.4 13.44 28.28 18 28.28C22.64 28.28 26.38 29.4 29.22 31.64C32.06 33.84 33.58 36.92 33.78 40.88H22.68C22.6 39.52 22.1 38.46 21.18 37.7C20.26 36.9 19.08 36.5 17.64 36.5C16.4 36.5 15.4 36.84 14.64 37.52C13.88 38.16 13.5 39.1 13.5 40.34C13.5 41.7 14.14 42.76 15.42 43.52C16.7 44.28 18.7 45.1 21.42 45.98C24.14 46.9 26.34 47.78 28.02 48.62C29.74 49.46 31.22 50.68 32.46 52.28C33.7 53.88 34.32 55.94 34.32 58.46C34.32 60.86 33.7 63.04 32.46 65C31.26 66.96 29.5 68.52 27.18 69.68C24.86 70.84 22.12 71.42 18.96 71.42ZM50.8941 42.26C51.8941 40.7 53.2741 39.44 55.0341 38.48C56.7941 37.52 58.8541 37.04 61.2141 37.04C63.9741 37.04 66.4741 37.74 68.7141 39.14C70.9541 40.54 72.7141 42.54 73.9941 45.14C75.3141 47.74 75.9741 50.76 75.9741 54.2C75.9741 57.64 75.3141 60.68 73.9941 63.32C72.7141 65.92 70.9541 67.94 68.7141 69.38C66.4741 70.78 63.9741 71.48 61.2141 71.48C58.8941 71.48 56.8341 71 55.0341 70.04C53.2741 69.08 51.8941 67.84 50.8941 66.32V86.96H40.6341V37.52H50.8941V42.26ZM65.5341 54.2C65.5341 51.64 64.8141 49.64 63.3741 48.2C61.9741 46.72 60.2341 45.98 58.1541 45.98C56.1141 45.98 54.3741 46.72 52.9341 48.2C51.5341 49.68 50.8341 51.7 50.8341 54.26C50.8341 56.82 51.5341 58.84 52.9341 60.32C54.3741 61.8 56.1141 62.54 58.1541 62.54C60.1941 62.54 61.9341 61.8 63.3741 60.32C64.8141 58.8 65.5341 56.76 65.5341 54.2ZM79.3167 54.2C79.3167 50.76 79.9567 47.74 81.2367 45.14C82.5567 42.54 84.3367 40.54 86.5767 39.14C88.8167 37.74 91.3167 37.04 94.0767 37.04C96.4367 37.04 98.4967 37.52 100.257 38.48C102.057 39.44 103.437 40.7 104.397 42.26V37.52H114.657V71H104.397V66.26C103.397 67.82 101.997 69.08 100.197 70.04C98.4367 71 96.3767 71.48 94.0167 71.48C91.2967 71.48 88.8167 70.78 86.5767 69.38C84.3367 67.94 82.5567 65.92 81.2367 63.32C79.9567 60.68 79.3167 57.64 79.3167 54.2ZM104.397 54.26C104.397 51.7 103.677 49.68 102.237 48.2C100.837 46.72 99.1167 45.98 97.0767 45.98C95.0367 45.98 93.2967 46.72 91.8567 48.2C90.4567 49.64 89.7567 51.64 89.7567 54.2C89.7567 56.76 90.4567 58.8 91.8567 60.32C93.2967 61.8 95.0367 62.54 97.0767 62.54C99.1167 62.54 100.837 61.8 102.237 60.32C103.677 58.84 104.397 56.82 104.397 54.26ZM120.039 54.26C120.039 50.78 120.739 47.74 122.139 45.14C123.579 42.54 125.559 40.54 128.079 39.14C130.639 37.74 133.559 37.04 136.839 37.04C141.039 37.04 144.539 38.14 147.339 40.34C150.179 42.54 152.039 45.64 152.919 49.64H141.999C141.079 47.08 139.299 45.8 136.659 45.8C134.779 45.8 133.279 46.54 132.159 48.02C131.039 49.46 130.479 51.54 130.479 54.26C130.479 56.98 131.039 59.08 132.159 60.56C133.279 62 134.779 62.72 136.659 62.72C139.299 62.72 141.079 61.44 141.999 58.88H152.919C152.039 62.8 150.179 65.88 147.339 68.12C144.499 70.36 140.999 71.48 136.839 71.48C133.559 71.48 130.639 70.78 128.079 69.38C125.559 67.98 123.579 65.98 122.139 63.38C120.739 60.78 120.039 57.74 120.039 54.26ZM189.967 53.72C189.967 54.68 189.908 55.68 189.788 56.72H166.568C166.728 58.8 167.388 60.4 168.548 61.52C169.748 62.6 171.208 63.14 172.928 63.14C175.488 63.14 177.268 62.06 178.268 59.9H189.188C188.628 62.1 187.608 64.08 186.128 65.84C184.688 67.6 182.868 68.98 180.668 69.98C178.468 70.98 176.008 71.48 173.288 71.48C170.008 71.48 167.088 70.78 164.528 69.38C161.968 67.98 159.968 65.98 158.528 63.38C157.088 60.78 156.368 57.74 156.368 54.26C156.368 50.78 157.068 47.74 158.468 45.14C159.908 42.54 161.908 40.54 164.468 39.14C167.028 37.74 169.968 37.04 173.288 37.04C176.528 37.04 179.408 37.72 181.928 39.08C184.448 40.44 186.408 42.38 187.808 44.9C189.248 47.42 189.967 50.36 189.967 53.72ZM179.468 51.02C179.468 49.26 178.868 47.86 177.668 46.82C176.468 45.78 174.968 45.26 173.168 45.26C171.448 45.26 169.988 45.76 168.788 46.76C167.628 47.76 166.908 49.18 166.628 51.02H179.468ZM358.999 73.46V83.3H321.799V73.46H358.999Z" fill="black"/>
<path d="M231.86 28.88V71H221.6V53.66H205.64V71H195.38V28.88H205.64V45.38H221.6V28.88H231.86ZM272.327 37.52V71H262.067V66.44C261.027 67.92 259.607 69.12 257.807 70.04C256.047 70.92 254.087 71.36 251.927 71.36C249.367 71.36 247.107 70.8 245.147 69.68C243.187 68.52 241.667 66.86 240.587 64.7C239.507 62.54 238.967 60 238.967 57.08V37.52H249.167V55.7C249.167 57.94 249.747 59.68 250.907 60.92C252.067 62.16 253.627 62.78 255.587 62.78C257.587 62.78 259.167 62.16 260.327 60.92C261.487 59.68 262.067 57.94 262.067 55.7V37.52H272.327ZM289.957 42.26C290.917 40.7 292.297 39.44 294.097 38.48C295.897 37.52 297.957 37.04 300.277 37.04C303.037 37.04 305.537 37.74 307.777 39.14C310.017 40.54 311.777 42.54 313.057 45.14C314.377 47.74 315.037 50.76 315.037 54.2C315.037 57.64 314.377 60.68 313.057 63.32C311.777 65.92 310.017 67.94 307.777 69.38C305.537 70.78 303.037 71.48 300.277 71.48C297.917 71.48 295.857 71.02 294.097 70.1C292.337 69.14 290.957 67.88 289.957 66.32V71H279.697V26.6H289.957V42.26ZM304.597 54.2C304.597 51.64 303.877 49.64 302.437 48.2C301.037 46.72 299.297 45.98 297.217 45.98C295.177 45.98 293.437 46.72 291.997 48.2C290.597 49.68 289.897 51.7 289.897 54.26C289.897 56.82 290.597 58.84 291.997 60.32C293.437 61.8 295.177 62.54 297.217 62.54C299.257 62.54 300.997 61.8 302.437 60.32C303.877 58.8 304.597 56.76 304.597 54.2Z" fill="#D85604"/>
<path d="M55.8165 13.968L52.8868 14.2876C52.804 13.9917 52.659 13.7135 52.4518 13.4531C52.2506 13.1927 51.9783 12.9826 51.6351 12.8228C51.2918 12.663 50.8716 12.5831 50.3744 12.5831C49.7056 12.5831 49.1433 12.7281 48.6876 13.0181C48.2378 13.3081 48.0159 13.6839 48.0218 14.1456C48.0159 14.5421 48.1609 14.8647 48.4568 15.1133C48.7586 15.3619 49.2558 15.5661 49.9483 15.7259L52.2743 16.223C53.5645 16.5012 54.5233 16.9421 55.1507 17.5458C55.784 18.1495 56.1036 18.9396 56.1095 19.9162C56.1036 20.7744 55.852 21.532 55.3549 22.1889C54.8636 22.84 54.18 23.349 53.3041 23.7159C52.4281 24.0829 51.422 24.2663 50.2856 24.2663C48.6166 24.2663 47.2731 23.9171 46.2551 23.2188C45.2371 22.5144 44.6304 21.5349 44.4351 20.2802L47.569 19.9783C47.7111 20.5939 48.0129 21.0585 48.4745 21.3722C48.9362 21.6858 49.5369 21.8427 50.2767 21.8427C51.0402 21.8427 51.6528 21.6858 52.1145 21.3722C52.582 21.0585 52.8158 20.6708 52.8158 20.2092C52.8158 19.8185 52.6649 19.496 52.363 19.2415C52.0671 18.987 51.6055 18.7917 50.9781 18.6555L48.6521 18.1673C47.3441 17.895 46.3764 17.4363 45.749 16.7912C45.1217 16.1402 44.811 15.3175 44.8169 14.3232C44.811 13.4827 45.0388 12.7547 45.5005 12.1392C45.968 11.5178 46.6161 11.0384 47.4447 10.701C48.2792 10.3577 49.241 10.1861 50.33 10.1861C51.928 10.1861 53.1857 10.5264 54.1031 11.207C55.0264 11.8877 55.5975 12.808 55.8165 13.968ZM64.7965 24.2663C63.4293 24.2663 62.2485 23.9822 61.2542 23.4141C60.2658 22.84 59.5053 22.0291 58.9726 20.9815C58.4399 19.928 58.1736 18.6881 58.1736 17.2617C58.1736 15.859 58.4399 14.628 58.9726 13.5685C59.5112 12.5032 60.2628 11.6746 61.2276 11.0827C62.1923 10.485 63.3257 10.1861 64.6278 10.1861C65.4682 10.1861 66.2613 10.3222 67.007 10.5945C67.7587 10.8608 68.4216 11.2751 68.9957 11.8374C69.5757 12.3996 70.0314 13.1158 70.3629 13.9858C70.6943 14.8499 70.86 15.8797 70.86 17.0753V18.0607H59.6828V15.8945H67.7794C67.7735 15.279 67.6403 14.7315 67.3799 14.2521C67.1195 13.7668 66.7555 13.3851 66.2879 13.1069C65.8263 12.8287 65.2877 12.6896 64.6722 12.6896C64.0152 12.6896 63.4381 12.8494 62.941 13.169C62.4438 13.4827 62.0562 13.897 61.778 14.4119C61.5057 14.9209 61.3667 15.4802 61.3607 16.0898V17.9808C61.3607 18.7739 61.5057 19.4545 61.7957 20.0227C62.0858 20.585 62.4912 21.017 63.012 21.3189C63.5328 21.6148 64.1425 21.7628 64.8408 21.7628C65.3084 21.7628 65.7316 21.6977 66.1104 21.5675C66.4892 21.4313 66.8176 21.2331 67.0958 20.9727C67.374 20.7122 67.5841 20.3897 67.7261 20.005L70.7269 20.3423C70.5375 21.1354 70.1764 21.8279 69.6438 22.4197C69.117 23.0057 68.4423 23.4614 67.6196 23.7869C66.7969 24.1065 65.8559 24.2663 64.7965 24.2663ZM77.5029 24.2752C76.6388 24.2752 75.8605 24.1213 75.168 23.8136C74.4814 23.4999 73.9369 23.0382 73.5345 22.4286C73.1379 21.819 72.9397 21.0674 72.9397 20.1737C72.9397 19.4042 73.0817 18.768 73.3658 18.2649C73.6499 17.7618 74.0375 17.3594 74.5288 17.0575C75.02 16.7557 75.5734 16.5278 76.1889 16.3739C76.8104 16.2141 77.4526 16.0987 78.1154 16.0277C78.9144 15.9448 79.5625 15.8709 80.0597 15.8058C80.5568 15.7347 80.9179 15.6282 81.1428 15.4862C81.3736 15.3382 81.489 15.1103 81.489 14.8026V14.7493C81.489 14.0805 81.2907 13.5626 80.8942 13.1957C80.4977 12.8287 79.9265 12.6452 79.1808 12.6452C78.3936 12.6452 77.7692 12.8169 77.3076 13.1602C76.8518 13.5034 76.5441 13.9089 76.3843 14.3764L73.3835 13.9503C73.6203 13.1217 74.0109 12.4292 74.5554 11.8729C75.0999 11.3106 75.7658 10.8904 76.5529 10.6122C77.3401 10.3281 78.2101 10.1861 79.163 10.1861C79.82 10.1861 80.474 10.263 81.125 10.4169C81.7761 10.5708 82.3709 10.8253 82.9095 11.1804C83.4481 11.5296 83.8801 12.006 84.2056 12.6097C84.5371 13.2134 84.7028 13.968 84.7028 14.8736V24H81.6133V22.1268H81.5068C81.3115 22.5056 81.0362 22.8607 80.6811 23.1921C80.3319 23.5176 79.891 23.781 79.3583 23.9822C78.8316 24.1776 78.2131 24.2752 77.5029 24.2752ZM78.3374 21.9137C78.9825 21.9137 79.5418 21.7865 80.0153 21.532C80.4888 21.2715 80.8528 20.9283 81.1073 20.5021C81.3677 20.076 81.4979 19.6114 81.4979 19.1083V17.5014C81.3973 17.5843 81.2256 17.6612 80.983 17.7322C80.7462 17.8033 80.4799 17.8654 80.184 17.9187C79.888 17.9719 79.5951 18.0193 79.3051 18.0607C79.0151 18.1022 78.7635 18.1377 78.5505 18.1673C78.071 18.2324 77.642 18.3389 77.2632 18.4869C76.8844 18.6348 76.5855 18.842 76.3665 19.1083C76.1475 19.3687 76.038 19.7061 76.038 20.1204C76.038 20.7122 76.254 21.1591 76.6861 21.4609C77.1182 21.7628 77.6686 21.9137 78.3374 21.9137ZM87.9343 24V10.3636H91.0505V12.6364H91.1925C91.4411 11.8492 91.8672 11.2425 92.4709 10.8164C93.0805 10.3844 93.7759 10.1683 94.5572 10.1683C94.7348 10.1683 94.933 10.1772 95.152 10.195C95.3769 10.2068 95.5634 10.2275 95.7113 10.2571V13.2134C95.5752 13.1661 95.3592 13.1246 95.0632 13.0891C94.7732 13.0477 94.4921 13.027 94.2198 13.027C93.6339 13.027 93.1072 13.1542 92.6396 13.4087C92.1779 13.6573 91.8139 14.0036 91.5476 14.4474C91.2813 14.8913 91.1481 15.4033 91.1481 15.9833V24H87.9343ZM103.233 24.2663C101.872 24.2663 100.703 23.9674 99.7263 23.3697C98.7557 22.7719 98.007 21.9463 97.4802 20.8928C96.9594 19.8333 96.699 18.6141 96.699 17.2351C96.699 15.8501 96.9653 14.628 97.498 13.5685C98.0307 12.5032 98.7823 11.6746 99.753 11.0827C100.73 10.485 101.884 10.1861 103.215 10.1861C104.322 10.1861 105.302 10.3903 106.154 10.7987C107.012 11.2011 107.696 11.7723 108.205 12.5121C108.714 13.246 109.004 14.1042 109.075 15.0866H106.003C105.879 14.4297 105.583 13.8822 105.115 13.4442C104.654 13.0004 104.035 12.7784 103.26 12.7784C102.603 12.7784 102.026 12.956 101.529 13.3111C101.031 13.6603 100.644 14.1634 100.366 14.8203C100.093 15.4773 99.9571 16.2644 99.9571 17.1818C99.9571 18.111 100.093 18.91 100.366 19.5788C100.638 20.2417 101.02 20.7537 101.511 21.1147C102.008 21.4698 102.591 21.6474 103.26 21.6474C103.733 21.6474 104.156 21.5586 104.529 21.381C104.908 21.1976 105.225 20.9342 105.479 20.5909C105.734 20.2476 105.908 19.8304 106.003 19.3391H109.075C108.998 20.3039 108.714 21.1591 108.222 21.9048C107.731 22.6446 107.062 23.2247 106.216 23.6449C105.37 24.0592 104.375 24.2663 103.233 24.2663ZM114.927 16.0099V24H111.714V5.81818H114.856V12.6808H115.016C115.336 11.9113 115.83 11.3047 116.499 10.8608C117.173 10.411 118.032 10.1861 119.073 10.1861C120.02 10.1861 120.846 10.3844 121.55 10.7809C122.255 11.1774 122.799 11.7575 123.184 12.521C123.574 13.2844 123.77 14.2166 123.77 15.3175V24H120.556V15.8146C120.556 14.8973 120.319 14.1841 119.846 13.6751C119.378 13.1602 118.721 12.9027 117.875 12.9027C117.307 12.9027 116.798 13.027 116.348 13.2756C115.904 13.5182 115.555 13.8704 115.3 14.332C115.052 14.7937 114.927 15.353 114.927 16.0099ZM129.025 24.1953C128.487 24.1953 128.025 24.0059 127.64 23.6271C127.256 23.2483 127.066 22.7867 127.072 22.2422C127.066 21.7095 127.256 21.2538 127.64 20.875C128.025 20.4962 128.487 20.3068 129.025 20.3068C129.546 20.3068 129.999 20.4962 130.384 20.875C130.774 21.2538 130.973 21.7095 130.979 22.2422C130.973 22.6032 130.878 22.9317 130.694 23.2276C130.517 23.5236 130.28 23.7603 129.984 23.9379C129.694 24.1095 129.375 24.1953 129.025 24.1953ZM140.245 24.2663C138.884 24.2663 137.715 23.9674 136.738 23.3697C135.767 22.7719 135.019 21.9463 134.492 20.8928C133.971 19.8333 133.711 18.6141 133.711 17.2351C133.711 15.8501 133.977 14.628 134.51 13.5685C135.042 12.5032 135.794 11.6746 136.765 11.0827C137.741 10.485 138.895 10.1861 140.227 10.1861C141.334 10.1861 142.313 10.3903 143.166 10.7987C144.024 11.2011 144.707 11.7723 145.216 12.5121C145.725 13.246 146.015 14.1042 146.086 15.0866H143.015C142.89 14.4297 142.594 13.8822 142.127 13.4442C141.665 13.0004 141.047 12.7784 140.271 12.7784C139.614 12.7784 139.037 12.956 138.54 13.3111C138.043 13.6603 137.655 14.1634 137.377 14.8203C137.105 15.4773 136.969 16.2644 136.969 17.1818C136.969 18.111 137.105 18.91 137.377 19.5788C137.649 20.2417 138.031 20.7537 138.522 21.1147C139.02 21.4698 139.603 21.6474 140.271 21.6474C140.745 21.6474 141.168 21.5586 141.541 21.381C141.92 21.1976 142.236 20.9342 142.491 20.5909C142.745 20.2476 142.92 19.8304 143.015 19.3391H146.086C146.009 20.3039 145.725 21.1591 145.234 21.9048C144.743 22.6446 144.074 23.2247 143.228 23.6449C142.381 24.0592 141.387 24.2663 140.245 24.2663ZM154.673 24.2663C153.342 24.2663 152.188 23.9734 151.211 23.3874C150.235 22.8015 149.477 21.9818 148.938 20.9283C148.406 19.8748 148.139 18.6437 148.139 17.2351C148.139 15.8265 148.406 14.5924 148.938 13.533C149.477 12.4736 150.235 11.6509 151.211 11.065C152.188 10.479 153.342 10.1861 154.673 10.1861C156.005 10.1861 157.159 10.479 158.136 11.065C159.112 11.6509 159.867 12.4736 160.4 13.533C160.938 14.5924 161.208 15.8265 161.208 17.2351C161.208 18.6437 160.938 19.8748 160.4 20.9283C159.867 21.9818 159.112 22.8015 158.136 23.3874C157.159 23.9734 156.005 24.2663 154.673 24.2663ZM154.691 21.6918C155.413 21.6918 156.017 21.4935 156.502 21.0969C156.988 20.6945 157.349 20.1559 157.585 19.4812C157.828 18.8065 157.949 18.0548 157.949 17.2262C157.949 16.3917 157.828 15.6371 157.585 14.9624C157.349 14.2817 156.988 13.7402 156.502 13.3377C156.017 12.9353 155.413 12.734 154.691 12.734C153.951 12.734 153.336 12.9353 152.845 13.3377C152.359 13.7402 151.995 14.2817 151.753 14.9624C151.516 15.6371 151.398 16.3917 151.398 17.2262C151.398 18.0548 151.516 18.8065 151.753 19.4812C151.995 20.1559 152.359 20.6945 152.845 21.0969C153.336 21.4935 153.951 21.6918 154.691 21.6918ZM163.935 24V10.3636H167.007V12.6808H167.167C167.451 11.8995 167.921 11.2899 168.578 10.8519C169.235 10.408 170.02 10.1861 170.931 10.1861C171.854 10.1861 172.633 10.411 173.266 10.8608C173.905 11.3047 174.355 11.9113 174.615 12.6808H174.757C175.059 11.9232 175.568 11.3195 176.284 10.8697C177.006 10.4139 177.862 10.1861 178.85 10.1861C180.105 10.1861 181.129 10.5826 181.922 11.3757C182.715 12.1688 183.111 13.3259 183.111 14.8469V24H179.889V15.3441C179.889 14.4978 179.664 13.8793 179.214 13.4886C178.764 13.0921 178.214 12.8938 177.563 12.8938C176.787 12.8938 176.181 13.1365 175.743 13.6218C175.311 14.1012 175.095 14.7256 175.095 15.495V24H171.943V15.2109C171.943 14.5066 171.73 13.9444 171.304 13.5241C170.884 13.1039 170.333 12.8938 169.653 12.8938C169.191 12.8938 168.771 13.0122 168.392 13.2489C168.013 13.4798 167.711 13.8082 167.486 14.2344C167.262 14.6546 167.149 15.1458 167.149 15.7081V24H163.935ZM186.372 29.1136V10.3636H189.532V12.6186H189.719C189.884 12.2872 190.118 11.935 190.42 11.5621C190.722 11.1834 191.13 10.8608 191.645 10.5945C192.16 10.3222 192.817 10.1861 193.616 10.1861C194.67 10.1861 195.62 10.4554 196.466 10.994C197.318 11.5266 197.993 12.3168 198.49 13.3643C198.993 14.406 199.245 15.6844 199.245 17.1996C199.245 18.697 198.999 19.9695 198.508 21.017C198.017 22.0646 197.348 22.8636 196.501 23.4141C195.655 23.9645 194.696 24.2397 193.625 24.2397C192.844 24.2397 192.196 24.1095 191.681 23.8491C191.166 23.5887 190.752 23.275 190.438 22.908C190.13 22.5352 189.89 22.183 189.719 21.8516H189.586V29.1136H186.372ZM189.523 17.1818C189.523 18.0637 189.648 18.8361 189.896 19.4989C190.151 20.1618 190.515 20.6797 190.988 21.0526C191.468 21.4195 192.048 21.603 192.728 21.603C193.439 21.603 194.033 21.4136 194.513 21.0348C194.992 20.6501 195.353 20.1263 195.596 19.4634C195.844 18.7946 195.969 18.0341 195.969 17.1818C195.969 16.3355 195.847 15.5838 195.605 14.9268C195.362 14.2699 195.001 13.755 194.522 13.3821C194.042 13.0092 193.445 12.8228 192.728 12.8228C192.042 12.8228 191.459 13.0033 190.979 13.3643C190.5 13.7254 190.136 14.2314 189.887 14.8825C189.645 15.5335 189.523 16.3 189.523 17.1818ZM205.921 24.2752C205.057 24.2752 204.278 24.1213 203.586 23.8136C202.899 23.4999 202.355 23.0382 201.952 22.4286C201.556 21.819 201.358 21.0674 201.358 20.1737C201.358 19.4042 201.5 18.768 201.784 18.2649C202.068 17.7618 202.456 17.3594 202.947 17.0575C203.438 16.7557 203.991 16.5278 204.607 16.3739C205.228 16.2141 205.871 16.0987 206.533 16.0277C207.332 15.9448 207.98 15.8709 208.478 15.8058C208.975 15.7347 209.336 15.6282 209.561 15.4862C209.792 15.3382 209.907 15.1103 209.907 14.8026V14.7493C209.907 14.0805 209.709 13.5626 209.312 13.1957C208.916 12.8287 208.344 12.6452 207.599 12.6452C206.812 12.6452 206.187 12.8169 205.726 13.1602C205.27 13.5034 204.962 13.9089 204.802 14.3764L201.802 13.9503C202.038 13.1217 202.429 12.4292 202.973 11.8729C203.518 11.3106 204.184 10.8904 204.971 10.6122C205.758 10.3281 206.628 10.1861 207.581 10.1861C208.238 10.1861 208.892 10.263 209.543 10.4169C210.194 10.5708 210.789 10.8253 211.327 11.1804C211.866 11.5296 212.298 12.006 212.624 12.6097C212.955 13.2134 213.121 13.968 213.121 14.8736V24H210.031V22.1268H209.925C209.729 22.5056 209.454 22.8607 209.099 23.1921C208.75 23.5176 208.309 23.781 207.776 23.9822C207.25 24.1776 206.631 24.2752 205.921 24.2752ZM206.755 21.9137C207.4 21.9137 207.96 21.7865 208.433 21.532C208.907 21.2715 209.271 20.9283 209.525 20.5021C209.786 20.076 209.916 19.6114 209.916 19.1083V17.5014C209.815 17.5843 209.644 17.6612 209.401 17.7322C209.164 17.8033 208.898 17.8654 208.602 17.9187C208.306 17.9719 208.013 18.0193 207.723 18.0607C207.433 18.1022 207.181 18.1377 206.968 18.1673C206.489 18.2324 206.06 18.3389 205.681 18.4869C205.302 18.6348 205.003 18.842 204.784 19.1083C204.565 19.3687 204.456 19.7061 204.456 20.1204C204.456 20.7122 204.672 21.1591 205.104 21.4609C205.536 21.7628 206.087 21.9137 206.755 21.9137ZM216.352 24V10.3636H219.468V12.6364H219.61C219.859 11.8492 220.285 11.2425 220.889 10.8164C221.498 10.3844 222.194 10.1683 222.975 10.1683C223.153 10.1683 223.351 10.1772 223.57 10.195C223.795 10.2068 223.981 10.2275 224.129 10.2571V13.2134C223.993 13.1661 223.777 13.1246 223.481 13.0891C223.191 13.0477 222.91 13.027 222.638 13.027C222.052 13.027 221.525 13.1542 221.058 13.4087C220.596 13.6573 220.232 14.0036 219.966 14.4474C219.699 14.8913 219.566 15.4033 219.566 15.9833V24H216.352ZM231.74 24.2663C230.373 24.2663 229.192 23.9822 228.198 23.4141C227.209 22.84 226.449 22.0291 225.916 20.9815C225.383 19.928 225.117 18.6881 225.117 17.2617C225.117 15.859 225.383 14.628 225.916 13.5685C226.455 12.5032 227.206 11.6746 228.171 11.0827C229.136 10.485 230.269 10.1861 231.571 10.1861C232.412 10.1861 233.205 10.3222 233.95 10.5945C234.702 10.8608 235.365 11.2751 235.939 11.8374C236.519 12.3996 236.975 13.1158 237.306 13.9858C237.638 14.8499 237.803 15.8797 237.803 17.0753V18.0607H226.626V15.8945H234.723C234.717 15.279 234.584 14.7315 234.323 14.2521C234.063 13.7668 233.699 13.3851 233.231 13.1069C232.77 12.8287 232.231 12.6896 231.616 12.6896C230.959 12.6896 230.382 12.8494 229.884 13.169C229.387 13.4827 229 13.897 228.721 14.4119C228.449 14.9209 228.31 15.4802 228.304 16.0898V17.9808C228.304 18.7739 228.449 19.4545 228.739 20.0227C229.029 20.585 229.435 21.017 229.955 21.3189C230.476 21.6148 231.086 21.7628 231.784 21.7628C232.252 21.7628 232.675 21.6977 233.054 21.5675C233.433 21.4313 233.761 21.2331 234.039 20.9727C234.317 20.7122 234.527 20.3897 234.67 20.005L237.67 20.3423C237.481 21.1354 237.12 21.8279 236.587 22.4197C236.06 23.0057 235.386 23.4614 234.563 23.7869C233.74 24.1065 232.799 24.2663 231.74 24.2663ZM242.502 24.1953C241.963 24.1953 241.502 24.0059 241.117 23.6271C240.732 23.2483 240.543 22.7867 240.549 22.2422C240.543 21.7095 240.732 21.2538 241.117 20.875C241.502 20.4962 241.963 20.3068 242.502 20.3068C243.023 20.3068 243.476 20.4962 243.86 20.875C244.251 21.2538 244.449 21.7095 244.455 22.2422C244.449 22.6032 244.354 22.9317 244.171 23.2276C243.993 23.5236 243.757 23.7603 243.461 23.9379C243.171 24.1095 242.851 24.1953 242.502 24.1953ZM247.915 24V5.81818H251.129V12.6186H251.262C251.428 12.2872 251.662 11.935 251.964 11.5621C252.265 11.1834 252.674 10.8608 253.189 10.5945C253.704 10.3222 254.361 10.1861 255.16 10.1861C256.213 10.1861 257.163 10.4554 258.009 10.994C258.862 11.5266 259.536 12.3168 260.033 13.3643C260.537 14.406 260.788 15.6844 260.788 17.1996C260.788 18.697 260.542 19.9695 260.051 21.017C259.56 22.0646 258.891 22.8636 258.045 23.4141C257.199 23.9645 256.24 24.2397 255.168 24.2397C254.387 24.2397 253.739 24.1095 253.224 23.8491C252.709 23.5887 252.295 23.275 251.981 22.908C251.674 22.5352 251.434 22.183 251.262 21.8516H251.076V24H247.915ZM251.067 17.1818C251.067 18.0637 251.191 18.8361 251.44 19.4989C251.694 20.1618 252.058 20.6797 252.532 21.0526C253.011 21.4195 253.591 21.603 254.272 21.603C254.982 21.603 255.577 21.4136 256.056 21.0348C256.536 20.6501 256.897 20.1263 257.139 19.4634C257.388 18.7946 257.512 18.0341 257.512 17.1818C257.512 16.3355 257.391 15.5838 257.148 14.9268C256.906 14.2699 256.545 13.755 256.065 13.3821C255.586 13.0092 254.988 12.8228 254.272 12.8228C253.585 12.8228 253.002 13.0033 252.523 13.3643C252.043 13.7254 251.679 14.2314 251.431 14.8825C251.188 15.5335 251.067 16.3 251.067 17.1818ZM269.468 24.2663C268.137 24.2663 266.983 23.9734 266.006 23.3874C265.029 22.8015 264.272 21.9818 263.733 20.9283C263.201 19.8748 262.934 18.6437 262.934 17.2351C262.934 15.8265 263.201 14.5924 263.733 13.533C264.272 12.4736 265.029 11.6509 266.006 11.065C266.983 10.479 268.137 10.1861 269.468 10.1861C270.8 10.1861 271.954 10.479 272.931 11.065C273.907 11.6509 274.662 12.4736 275.195 13.533C275.733 14.5924 276.003 15.8265 276.003 17.2351C276.003 18.6437 275.733 19.8748 275.195 20.9283C274.662 21.9818 273.907 22.8015 272.931 23.3874C271.954 23.9734 270.8 24.2663 269.468 24.2663ZM269.486 21.6918C270.208 21.6918 270.812 21.4935 271.297 21.0969C271.783 20.6945 272.144 20.1559 272.38 19.4812C272.623 18.8065 272.744 18.0548 272.744 17.2262C272.744 16.3917 272.623 15.6371 272.38 14.9624C272.144 14.2817 271.783 13.7402 271.297 13.3377C270.812 12.9353 270.208 12.734 269.486 12.734C268.746 12.734 268.131 12.9353 267.64 13.3377C267.154 13.7402 266.79 14.2817 266.548 14.9624C266.311 15.6371 266.192 16.3917 266.192 17.2262C266.192 18.0548 266.311 18.8065 266.548 19.4812C266.79 20.1559 267.154 20.6945 267.64 21.0969C268.131 21.4935 268.746 21.6918 269.486 21.6918ZM284.678 24.2663C283.347 24.2663 282.193 23.9734 281.216 23.3874C280.239 22.8015 279.482 21.9818 278.943 20.9283C278.411 19.8748 278.144 18.6437 278.144 17.2351C278.144 15.8265 278.411 14.5924 278.943 13.533C279.482 12.4736 280.239 11.6509 281.216 11.065C282.193 10.479 283.347 10.1861 284.678 10.1861C286.01 10.1861 287.164 10.479 288.141 11.065C289.117 11.6509 289.872 12.4736 290.405 13.533C290.943 14.5924 291.212 15.8265 291.212 17.2351C291.212 18.6437 290.943 19.8748 290.405 20.9283C289.872 21.9818 289.117 22.8015 288.141 23.3874C287.164 23.9734 286.01 24.2663 284.678 24.2663ZM284.696 21.6918C285.418 21.6918 286.022 21.4935 286.507 21.0969C286.993 20.6945 287.354 20.1559 287.59 19.4812C287.833 18.8065 287.954 18.0548 287.954 17.2262C287.954 16.3917 287.833 15.6371 287.59 14.9624C287.354 14.2817 286.993 13.7402 286.507 13.3377C286.022 12.9353 285.418 12.734 284.696 12.734C283.956 12.734 283.341 12.9353 282.85 13.3377C282.364 13.7402 282 14.2817 281.758 14.9624C281.521 15.6371 281.402 16.3917 281.402 17.2262C281.402 18.0548 281.521 18.8065 281.758 19.4812C282 20.1559 282.364 20.6945 282.85 21.0969C283.341 21.4935 283.956 21.6918 284.696 21.6918ZM296.87 19.7209L296.861 15.8413H297.376L302.276 10.3636H306.032L300.004 17.0753H299.338L296.87 19.7209ZM293.94 24V5.81818H297.154V24H293.94ZM302.498 24L298.06 17.7944L300.226 15.5305L306.343 24H302.498Z" fill="black"/>
</svg>
