<svg width="166" height="30" viewBox="0 0 166 30" fill="none" xmlns="http://www.w3.org/2000/svg">
<path d="M12.7322 7.45668C12.647 6.5973 12.2813 5.92969 11.6349 5.45383C10.9886 4.97798 10.1115 4.74006 9.00355 4.74006C8.25071 4.74006 7.61506 4.84659 7.09659 5.05966C6.57813 5.26562 6.1804 5.55327 5.90341 5.92258C5.63352 6.2919 5.49858 6.71094 5.49858 7.17969C5.48438 7.57031 5.56605 7.91122 5.74361 8.20241C5.92827 8.49361 6.1804 8.74574 6.5 8.95881C6.8196 9.16477 7.18892 9.34588 7.60795 9.50213C8.02699 9.65128 8.47443 9.77912 8.95028 9.88565L10.9105 10.3544C11.8622 10.5675 12.7358 10.8516 13.5312 11.2067C14.3267 11.5618 15.0156 11.9986 15.598 12.517C16.1804 13.0355 16.6314 13.6463 16.951 14.3494C17.2777 15.0526 17.4446 15.8587 17.4517 16.7678C17.4446 18.103 17.1037 19.2607 16.429 20.2408C15.7614 21.2138 14.7955 21.9702 13.5312 22.5099C12.2741 23.0426 10.7578 23.3089 8.98224 23.3089C7.22088 23.3089 5.68679 23.0391 4.37997 22.4993C3.08026 21.9595 2.06463 21.1605 1.3331 20.1023C0.608665 19.0369 0.228693 17.7195 0.193182 16.1499H4.65696C4.70668 16.8814 4.91619 17.4922 5.28551 17.9822C5.66193 18.4652 6.16264 18.831 6.78764 19.0795C7.41974 19.321 8.13352 19.4418 8.92898 19.4418C9.71023 19.4418 10.3885 19.3281 10.9638 19.1009C11.5462 18.8736 11.9972 18.5575 12.3168 18.1527C12.6364 17.7479 12.7962 17.2827 12.7962 16.7571C12.7962 16.267 12.6506 15.8551 12.3594 15.5213C12.0753 15.1875 11.6563 14.9034 11.1023 14.669C10.5554 14.4347 9.88423 14.2216 9.08878 14.0298L6.71307 13.4332C4.87358 12.9858 3.42116 12.2862 2.35582 11.3345C1.29048 10.3828 0.761364 9.10085 0.768466 7.48864C0.761364 6.16761 1.11293 5.01349 1.82315 4.02628C2.54048 3.03906 3.52415 2.26847 4.77415 1.71449C6.02415 1.16051 7.4446 0.883522 9.03551 0.883522C10.6548 0.883522 12.0682 1.16051 13.2756 1.71449C14.4901 2.26847 15.4347 3.03906 16.1094 4.02628C16.7841 5.01349 17.1321 6.15696 17.1534 7.45668H12.7322ZM20.4693 29.1364V6.63636H24.9437V9.38494H25.1461C25.345 8.9446 25.6326 8.49716 26.0091 8.04261C26.3926 7.58097 26.8897 7.19744 27.5005 6.89205C28.1184 6.57955 28.8855 6.4233 29.8017 6.4233C30.9949 6.4233 32.0957 6.7358 33.1042 7.3608C34.1127 7.97869 34.9189 8.91264 35.5225 10.1626C36.1262 11.4055 36.4281 12.9645 36.4281 14.8395C36.4281 16.6648 36.1333 18.206 35.5439 19.4631C34.9615 20.7131 34.166 21.6612 33.1575 22.3075C32.1561 22.9467 31.0339 23.2663 29.791 23.2663C28.9103 23.2663 28.161 23.1207 27.5431 22.8295C26.9324 22.5384 26.4316 22.1726 26.041 21.7322C25.6504 21.2848 25.3521 20.8338 25.1461 20.3793H25.0076V29.1364H20.4693ZM24.9118 14.8182C24.9118 15.7912 25.0467 16.6399 25.3166 17.3643C25.5865 18.0888 25.9771 18.6534 26.4885 19.0582C26.9998 19.456 27.6213 19.6548 28.3528 19.6548C29.0914 19.6548 29.7164 19.4524 30.2278 19.0476C30.7392 18.6357 31.1262 18.0675 31.389 17.343C31.6589 16.6115 31.7939 15.7699 31.7939 14.8182C31.7939 13.8736 31.6625 13.0426 31.3997 12.3253C31.1369 11.608 30.7498 11.0469 30.2385 10.642C29.7271 10.2372 29.0985 10.0348 28.3528 10.0348C27.6142 10.0348 26.9892 10.2301 26.4778 10.6207C25.9735 11.0114 25.5865 11.5653 25.3166 12.2827C25.0467 13 24.9118 13.8452 24.9118 14.8182ZM44.1199 23.3089C43.0758 23.3089 42.1454 23.1278 41.3287 22.7656C40.5119 22.3963 39.8656 21.853 39.3897 21.1357C38.921 20.4112 38.6866 19.5092 38.6866 18.4297C38.6866 17.5206 38.8535 16.7571 39.1873 16.1392C39.5211 15.5213 39.9757 15.0241 40.551 14.6477C41.1262 14.2713 41.7797 13.9872 42.5112 13.7955C43.2498 13.6037 44.024 13.4688 44.8336 13.3906C45.7853 13.2912 46.5524 13.1989 47.1348 13.1136C47.7172 13.0213 48.1397 12.8864 48.4025 12.7088C48.6653 12.5312 48.7967 12.2685 48.7967 11.9205V11.8565C48.7967 11.1818 48.5836 10.6598 48.1575 10.2905C47.7385 9.92116 47.1419 9.73651 46.3677 9.73651C45.551 9.73651 44.9011 9.91761 44.4181 10.2798C43.9352 10.6349 43.6156 11.0824 43.4593 11.6222L39.2619 11.2812C39.475 10.2869 39.894 9.42756 40.519 8.70312C41.144 7.97159 41.9501 7.41051 42.9373 7.01989C43.9316 6.62216 45.0822 6.4233 46.389 6.4233C47.2981 6.4233 48.1681 6.52983 48.9991 6.7429C49.8372 6.95597 50.5794 7.28622 51.2257 7.73366C51.8791 8.18111 52.394 8.75639 52.7704 9.45952C53.1468 10.1555 53.335 10.9901 53.335 11.9631V23H49.0311V20.7308H48.9032C48.6404 21.2422 48.2889 21.6932 47.8485 22.0838C47.4082 22.4673 46.8791 22.7692 46.2612 22.9893C45.6433 23.2024 44.9295 23.3089 44.1199 23.3089ZM45.4196 20.1768C46.0872 20.1768 46.6767 20.0455 47.188 19.7827C47.6994 19.5128 48.1007 19.1506 48.3919 18.696C48.6831 18.2415 48.8287 17.7266 48.8287 17.1513V15.4148C48.6866 15.5071 48.4913 15.5923 48.2427 15.6705C48.0012 15.7415 47.7278 15.8089 47.4224 15.8729C47.117 15.9297 46.8116 15.983 46.5062 16.0327C46.2008 16.0753 45.9238 16.1143 45.6752 16.1499C45.1426 16.228 44.6774 16.3523 44.2797 16.5227C43.8819 16.6932 43.573 16.924 43.3528 17.2152C43.1326 17.4993 43.0225 17.8544 43.0225 18.2805C43.0225 18.8984 43.2463 19.3707 43.6937 19.6974C44.1483 20.017 44.7235 20.1768 45.4196 20.1768ZM64.2495 23.3196C62.5733 23.3196 61.1316 22.9645 59.9242 22.2543C58.7239 21.5369 57.8006 20.5426 57.1543 19.2713C56.5151 18 56.1955 16.5369 56.1955 14.8821C56.1955 13.206 56.5186 11.7358 57.165 10.4716C57.8184 9.20028 58.7452 8.20952 59.9455 7.49929C61.1458 6.78196 62.5733 6.4233 64.2282 6.4233C65.6557 6.4233 66.9057 6.68253 67.9782 7.20099C69.0506 7.71946 69.8993 8.44744 70.5243 9.38494C71.1493 10.3224 71.4938 11.4233 71.5577 12.6875H67.275C67.1543 11.8707 66.8347 11.2138 66.3162 10.7166C65.8049 10.2124 65.1337 9.96023 64.3027 9.96023C63.5996 9.96023 62.9853 10.152 62.4597 10.5355C61.9412 10.9119 61.5364 11.4624 61.2452 12.1868C60.954 12.9112 60.8084 13.7884 60.8084 14.8182C60.8084 15.8622 60.9505 16.75 61.2346 17.4815C61.5257 18.2131 61.9341 18.7706 62.4597 19.1541C62.9853 19.5376 63.5996 19.7294 64.3027 19.7294C64.8212 19.7294 65.2864 19.6229 65.6983 19.4098C66.1174 19.1967 66.4618 18.8878 66.7317 18.483C67.0087 18.071 67.1898 17.5774 67.275 17.0021H71.5577C71.4867 18.2521 71.1458 19.353 70.535 20.3047C69.9313 21.2493 69.0968 21.9879 68.0314 22.5206C66.9661 23.0533 65.7054 23.3196 64.2495 23.3196ZM81.9208 23.3196C80.2376 23.3196 78.7887 22.9787 77.5742 22.2969C76.3668 21.608 75.4364 20.6349 74.783 19.3778C74.1296 18.1136 73.8029 16.6186 73.8029 14.8928C73.8029 13.2095 74.1296 11.7322 74.783 10.4609C75.4364 9.18963 76.3562 8.19886 77.5423 7.48864C78.7354 6.77841 80.1346 6.4233 81.7397 6.4233C82.8192 6.4233 83.8242 6.5973 84.7546 6.94531C85.6921 7.28622 86.5089 7.80114 87.2049 8.49006C87.908 9.17898 88.4549 10.0455 88.8455 11.0895C89.2362 12.1264 89.4315 13.3409 89.4315 14.733V15.9794H75.614V13.1669H85.1594C85.1594 12.5135 85.0174 11.9347 84.7333 11.4304C84.4492 10.9261 84.055 10.532 83.5508 10.2479C83.0536 9.95668 82.4748 9.81108 81.8143 9.81108C81.1254 9.81108 80.5146 9.97088 79.9819 10.2905C79.4563 10.603 79.0444 11.0256 78.7461 11.5582C78.4478 12.0838 78.2951 12.6697 78.288 13.3161V15.9901C78.288 16.7997 78.4371 17.4993 78.7354 18.0888C79.0408 18.6783 79.4705 19.1328 80.0245 19.4524C80.5785 19.772 81.2354 19.9318 81.9954 19.9318C82.4996 19.9318 82.9613 19.8608 83.3803 19.7188C83.7994 19.5767 84.158 19.3636 84.4563 19.0795C84.7546 18.7955 84.9819 18.4474 85.1381 18.0355L89.3356 18.3125C89.1225 19.321 88.6857 20.2017 88.0252 20.9545C87.3718 21.7003 86.5266 22.2827 85.4897 22.7017C84.4599 23.1136 83.2702 23.3196 81.9208 23.3196ZM165.007 23V26.4411H150.678V23H165.007Z" fill="black"/>
<path d="M92.4783 23V1.18182H97.0913V10.1839H106.456V1.18182H111.058V23H106.456V13.9872H97.0913V23H92.4783ZM125.27 16.0327V6.63636H129.808V23H125.451V20.0277H125.28C124.911 20.9865 124.297 21.7571 123.437 22.3395C122.585 22.9219 121.544 23.2131 120.316 23.2131C119.222 23.2131 118.26 22.9645 117.429 22.4673C116.598 21.9702 115.948 21.2635 115.479 20.3473C115.017 19.4311 114.783 18.3338 114.776 17.0554V6.63636H119.314V16.2457C119.321 17.2116 119.581 17.9751 120.092 18.5362C120.603 19.0973 121.289 19.3778 122.148 19.3778C122.695 19.3778 123.206 19.2536 123.682 19.005C124.158 18.7493 124.542 18.3729 124.833 17.8757C125.131 17.3786 125.277 16.7642 125.27 16.0327ZM133.523 23V1.18182H138.062V9.38494H138.2C138.399 8.9446 138.687 8.49716 139.063 8.04261C139.447 7.58097 139.944 7.19744 140.555 6.89205C141.172 6.57955 141.939 6.4233 142.856 6.4233C144.049 6.4233 145.15 6.7358 146.158 7.3608C147.167 7.97869 147.973 8.91264 148.577 10.1626C149.18 11.4055 149.482 12.9645 149.482 14.8395C149.482 16.6648 149.187 18.206 148.598 19.4631C148.015 20.7131 147.22 21.6612 146.211 22.3075C145.21 22.9467 144.088 23.2663 142.845 23.2663C141.964 23.2663 141.215 23.1207 140.597 22.8295C139.986 22.5384 139.486 22.1726 139.095 21.7322C138.704 21.2848 138.406 20.8338 138.2 20.3793H137.998V23H133.523ZM137.966 14.8182C137.966 15.7912 138.101 16.6399 138.371 17.3643C138.64 18.0888 139.031 18.6534 139.542 19.0582C140.054 19.456 140.675 19.6548 141.407 19.6548C142.145 19.6548 142.77 19.4524 143.282 19.0476C143.793 18.6357 144.18 18.0675 144.443 17.343C144.713 16.6115 144.848 15.7699 144.848 14.8182C144.848 13.8736 144.716 13.0426 144.454 12.3253C144.191 11.608 143.804 11.0469 143.292 10.642C142.781 10.2372 142.153 10.0348 141.407 10.0348C140.668 10.0348 140.043 10.2301 139.532 10.6207C139.028 11.0114 138.64 11.5653 138.371 12.2827C138.101 13 137.966 13.8452 137.966 14.8182Z" fill="#AD1B02"/>
</svg>
